<mxfile host="app.diagrams.net" modified="2020-12-31T17:13:09.263Z" agent="5.0 (Windows NT 10.0; Win64; x64) AppleWebKit/537.36 (KHTML, like Gecko) Chrome/87.0.4280.101 Safari/537.36" etag="nFgMOj2djhDPkWajKlXV" version="14.1.5" type="github">
  <diagram id="uq7BTFc45S8QEtXnFE6A" name="Page-1">
    <mxGraphModel dx="723" dy="378" grid="1" gridSize="10" guides="1" tooltips="1" connect="1" arrows="1" fold="1" page="1" pageScale="1" pageWidth="850" pageHeight="1100" math="0" shadow="0">
      <root>
        <mxCell id="0" />
        <mxCell id="1" parent="0" />
        <mxCell id="ZDzPzsSCuQRW6Z2vS_2U-1" value="" style="html=1;dashed=0;whitespace=wrap;shape=mxgraph.dfd.start" vertex="1" parent="1">
          <mxGeometry x="385" y="10" width="80" height="30" as="geometry" />
        </mxCell>
        <mxCell id="ZDzPzsSCuQRW6Z2vS_2U-2" value="" style="endArrow=classic;html=1;exitX=0.5;exitY=0.5;exitDx=0;exitDy=15;exitPerimeter=0;entryX=0.5;entryY=0;entryDx=0;entryDy=0;" edge="1" parent="1" source="ZDzPzsSCuQRW6Z2vS_2U-1" target="ZDzPzsSCuQRW6Z2vS_2U-5">
          <mxGeometry width="50" height="50" relative="1" as="geometry">
            <mxPoint x="420" y="170" as="sourcePoint" />
            <mxPoint x="425" y="120" as="targetPoint" />
          </mxGeometry>
        </mxCell>
        <mxCell id="ZDzPzsSCuQRW6Z2vS_2U-4" value="Receive G-Code File&amp;nbsp;" style="text;html=1;strokeColor=none;fillColor=none;align=center;verticalAlign=middle;whiteSpace=wrap;rounded=0;" vertex="1" parent="1">
          <mxGeometry x="440" y="70" width="120" height="20" as="geometry" />
        </mxCell>
        <mxCell id="ZDzPzsSCuQRW6Z2vS_2U-5" value="Received G-Code File" style="rounded=0;whiteSpace=wrap;html=1;" vertex="1" parent="1">
          <mxGeometry x="365" y="120" width="120" height="60" as="geometry" />
        </mxCell>
        <mxCell id="ZDzPzsSCuQRW6Z2vS_2U-7" value="" style="endArrow=classic;html=1;exitX=0.5;exitY=1;exitDx=0;exitDy=0;entryX=0.5;entryY=0;entryDx=0;entryDy=0;" edge="1" parent="1" source="ZDzPzsSCuQRW6Z2vS_2U-5" target="ZDzPzsSCuQRW6Z2vS_2U-17">
          <mxGeometry width="50" height="50" relative="1" as="geometry">
            <mxPoint x="440" y="200" as="sourcePoint" />
            <mxPoint x="425" y="280" as="targetPoint" />
          </mxGeometry>
        </mxCell>
        <mxCell id="ZDzPzsSCuQRW6Z2vS_2U-10" value="&lt;font style=&quot;font-size: 10px&quot;&gt;G-Code Visualizer&lt;/font&gt;" style="rhombus;whiteSpace=wrap;html=1;fontColor=#FFFFFF;fillColor=#CC0000;" vertex="1" parent="1">
          <mxGeometry x="390" y="190" width="70" height="70" as="geometry" />
        </mxCell>
        <mxCell id="ZDzPzsSCuQRW6Z2vS_2U-15" value="" style="endArrow=classic;html=1;fontColor=#FFFFFF;exitX=0;exitY=0.5;exitDx=0;exitDy=0;entryX=0.5;entryY=0;entryDx=0;entryDy=0;" edge="1" parent="1" source="ZDzPzsSCuQRW6Z2vS_2U-5" target="ZDzPzsSCuQRW6Z2vS_2U-16">
          <mxGeometry width="50" height="50" relative="1" as="geometry">
            <mxPoint x="365" y="150" as="sourcePoint" />
            <mxPoint x="320" y="280" as="targetPoint" />
            <Array as="points">
              <mxPoint x="320" y="150" />
            </Array>
          </mxGeometry>
        </mxCell>
        <mxCell id="ZDzPzsSCuQRW6Z2vS_2U-6" value="&lt;font style=&quot;font-size: 10px&quot;&gt;Parser&lt;/font&gt;" style="rhombus;whiteSpace=wrap;html=1;fillColor=#0000FF;fontColor=#FFFFFF;" vertex="1" parent="1">
          <mxGeometry x="300" y="130" width="40" height="40" as="geometry" />
        </mxCell>
        <mxCell id="ZDzPzsSCuQRW6Z2vS_2U-9" value="&lt;font style=&quot;font-size: 10px&quot;&gt;JSON Visualizer&lt;/font&gt;" style="rhombus;whiteSpace=wrap;html=1;fontColor=#FFFFFF;fillColor=#00CC00;" vertex="1" parent="1">
          <mxGeometry x="285" y="190" width="70" height="70" as="geometry" />
        </mxCell>
        <mxCell id="ZDzPzsSCuQRW6Z2vS_2U-16" value="JSON Plot" style="rounded=0;whiteSpace=wrap;html=1;" vertex="1" parent="1">
          <mxGeometry x="295" y="296.25" width="50" height="50" as="geometry" />
        </mxCell>
        <mxCell id="ZDzPzsSCuQRW6Z2vS_2U-17" value="G-Code Plot" style="rounded=0;whiteSpace=wrap;html=1;" vertex="1" parent="1">
          <mxGeometry x="400" y="296.25" width="50" height="50" as="geometry" />
        </mxCell>
      </root>
    </mxGraphModel>
  </diagram>
</mxfile>
